nColumns=28
nRows=67
DataType=double
version=3
OpenSimVersion=4.1
endheader
time	ground_force_1_vx	ground_force_1_vy	ground_force_1_vz	ground_force_1_px	ground_force_1_py	ground_force_1_pz	ground_force_1_mx	ground_force_1_my	ground_force_1_mz	ground_force_2_vx	ground_force_2_vy	ground_force_2_vz	ground_force_2_px	ground_force_2_py	ground_force_2_pz	ground_force_2_mx	ground_force_2_my	ground_force_2_mz	ground_force_3_vx	ground_force_3_vy	ground_force_3_vz	ground_force_3_px	ground_force_3_py	ground_force_3_pz	ground_force_3_mx	ground_force_3_my	ground_force_3_mz
1.43	-105.106	167.456	-2.54836	-0.123421	0.006	-0.402746	0	0.49096	0	-107.116	163.877	13.8344	-0.098458	0.006	-0.772617	0	-0.683521	0	0	0	0	0	0	0	0	0	0
1.44	-357.046	616.375	-43.384	-0.131138	0.006	-0.398745	0	1.98835	0	-301.976	510.513	57.8395	-0.109007	0.006	-0.778158	0	-1.56937	0	0	0	0	0	0	0	0	0	0
1.45	-278.005	659.273	-98.052	-0.139582	0.006	-0.396288	0	3.4306	0	-204.752	515.715	107.452	-0.122015	0.006	-0.777954	0	-3.94371	0	0	0	0	0	0	0	0	0	0
1.46	-151.79	752.81	-107.143	-0.178793	0.006	-0.401204	0	-0.115459	0	-108.99	655	87.5667	-0.167413	0.006	-0.766738	0	1.28567	0	0	0	0	0	0	0	0	0	0
1.47	-68.1464	1252.81	-104.231	-0.222926	0.006	-0.408818	0	-6.75069	0	-61.7589	1065.74	48.78	-0.203552	0.006	-0.759272	0	7.16354	0	0	0	0	0	0	0	0	0	0
1.48	-63.539	1391.63	-105.147	-0.231161	0.006	-0.411246	0	-10.8159	0	-92.0236	1049.84	42.8168	-0.204624	0.006	-0.757181	0	9.70857	0	0	0	0	0	0	0	0	0	0
1.49	-223.632	1016.03	-90.8953	-0.209621	0.006	-0.411606	0	-9.38421	0	-230.269	734.917	54.0599	-0.176983	0.006	-0.756748	0	7.47203	0	0	0	0	0	0	0	0	0	0
1.5	-277.134	704.046	-74.842	-0.179844	0.006	-0.411236	0	-6.94798	0	-270.805	546.253	53.7861	-0.148276	0.006	-0.756244	0	4.91156	0	0	0	0	0	0	0	0	0	0
1.51	-213.235	584.53	-64.0467	-0.168535	0.006	-0.410374	0	-6.72094	0	-224.781	507.594	42.0456	-0.145028	0.006	-0.754106	0	5.69879	0	0	0	0	0	0	0	0	0	0
1.52	-165.967	572.449	-53.7168	-0.170372	0.006	-0.410193	0	-7.90802	0	-173.842	539.405	28.2499	-0.154841	0.006	-0.751902	0	8.3239	0	0	0	0	0	0	0	0	0	0
1.53	-161.395	594.264	-50.7063	-0.172911	0.006	-0.410175	0	-8.86686	0	-148.224	573.772	21.1319	-0.161849	0.006	-0.750524	0	10.3392	0	0	0	0	0	0	0	0	0	0
1.54	-152.183	630.642	-56.7162	-0.177312	0.006	-0.409776	0	-9.07663	0	-137.188	597.112	29.3863	-0.165118	0.006	-0.750645	0	10.795	0	0	0	0	0	0	0	0	0	0
1.55	-117.566	660.228	-62.0303	-0.18349	0.006	-0.4094	0	-9.13651	0	-118.112	614.725	43.1503	-0.168362	0.006	-0.751328	0	10.6471	0	0	0	0	0	0	0	0	0	0
1.56	-84.525	669.147	-63.7067	-0.187938	0.006	-0.409282	0	-9.30593	0	-96.5012	613.87	47.4646	-0.170529	0.006	-0.751385	0	10.7395	0	0	0	0	0	0	0	0	0	0
1.57	-71.4147	646.674	-62.566	-0.18818	0.006	-0.409268	0	-9.33233	0	-86.1526	586.122	45.607	-0.169784	0.006	-0.750891	0	10.8736	0	0	0	0	0	0	0	0	0	0
1.58	-72.3718	602.775	-59.1589	-0.185134	0.006	-0.409475	0	-9.3663	0	-86.7367	553.17	43.7553	-0.167483	0.006	-0.750441	0	10.8953	0	0	0	0	0	0	0	0	0	0
1.59	-80.4907	560.962	-52.7159	-0.181106	0.006	-0.410378	0	-9.74949	0	-89.9407	529.649	41.4224	-0.165746	0.006	-0.749855	0	10.8681	0	0	0	0	0	0	0	0	0	0
1.6	-86.6309	530.077	-45.0056	-0.178168	0.006	-0.411816	0	-10.2212	0	-89.2118	513.432	40.5738	-0.165326	0.006	-0.749217	0	10.6638	0	0	0	0	0	0	0	0	0	0
1.61	-83.8906	506.545	-40.6909	-0.17686	0.006	-0.413173	0	-10.327	0	-81.2668	502.228	42.4157	-0.16624	0.006	-0.748688	0	10.1704	0	0	0	0	0	0	0	0	0	0
1.62	-73.6334	488.378	-40.1243	-0.176931	0.006	-0.414021	0	-10.1028	0	-67.2126	494.314	43.5751	-0.168375	0.006	-0.748135	0	9.58639	0	0	0	0	0	0	0	0	0	0
1.63	-62.1695	475.234	-41.531	-0.177768	0.006	-0.414621	0	-9.71406	0	-52.9284	487.873	40.9795	-0.170729	0.006	-0.747413	0	9.15401	0	0	0	0	0	0	0	0	0	0
1.64	-54.6361	467.213	-43.6872	-0.178874	0.006	-0.414958	0	-9.30036	0	-43.4394	480.315	37.0833	-0.172409	0.006	-0.746641	0	8.76609	0	0	0	0	0	0	0	0	0	0
1.65	-49.5497	460.834	-44.736	-0.180233	0.006	-0.415447	0	-8.97158	0	-37.3459	468.885	34.493	-0.173212	0.006	-0.745971	0	8.34867	0	0	0	0	0	0	0	0	0	0
1.66	-44.2105	450.675	-43.7594	-0.181675	0.006	-0.415981	0	-8.7299	0	-32.7154	454.73	33.027	-0.173636	0.006	-0.745484	0	8.0156	0	0	0	0	0	0	0	0	0	0
1.67	-38.0909	435.356	-41.2727	-0.182897	0.006	-0.416313	0	-8.56308	0	-28.5411	442.424	31.8569	-0.174222	0.006	-0.745283	0	7.87667	0	0	0	0	0	0	0	0	0	0
1.68	-32.139	417.672	-37.6134	-0.183941	0.006	-0.416625	0	-8.51283	0	-23.1294	434.139	30.7713	-0.175435	0.006	-0.745302	0	7.79023	0	0	0	0	0	0	0	0	0	0
1.69	-27.0979	402.243	-33.6934	-0.184978	0.006	-0.417135	0	-8.61393	0	-15.1824	429.79	30.1118	-0.177126	0.006	-0.745348	0	7.59187	0	0	0	0	0	0	0	0	0	0
1.7	-22.3388	391.522	-30.5182	-0.18603	0.006	-0.417276	0	-8.79359	0	-6.2005	430.335	30.7104	-0.179397	0.006	-0.745366	0	7.29685	0	0	0	0	0	0	0	0	0	0
1.71	-16.861	382.942	-28.7823	-0.186937	0.006	-0.417051	0	-8.89637	0	1.96182	434.92	32.6121	-0.181722	0.006	-0.74573	0	6.94617	0	0	0	0	0	0	0	0	0	0
1.72	-10.4759	374.011	-28.105	-0.187527	0.006	-0.416726	0	-8.8414	0	9.43635	439.809	35.2987	-0.183851	0.006	-0.746222	0	6.59205	0	0	0	0	0	0	0	0	0	0
1.73	-3.99983	364.956	-27.7835	-0.187798	0.006	-0.416331	0	-8.64572	0	16.0012	443.376	38.2852	-0.185433	0.006	-0.746741	0	6.26057	0	0	0	0	0	0	0	0	0	0
1.74	1.41605	354.58	-27.5996	-0.187749	0.006	-0.415912	0	-8.34608	0	21.0594	447.511	40.9108	-0.186309	0.006	-0.747327	0	5.90322	0	0	0	0	0	0	0	0	0	0
1.75	5.88424	341.492	-27.2409	-0.187177	0.006	-0.415763	0	-8.01093	0	24.5546	453.013	43.0816	-0.186298	0.006	-0.74798	0	5.55096	0	0	0	0	0	0	0	0	0	0
1.76	8.52851	325.278	-25.9938	-0.18572	0.006	-0.415692	0	-7.65832	0	26.0406	457.223	45.606	-0.185545	0.006	-0.748762	0	5.18056	0	0	0	0	0	0	0	0	0	0
1.77	9.10698	307.892	-24.098	-0.183585	0.006	-0.415726	0	-7.31617	0	25.0439	458.627	48.2007	-0.184392	0.006	-0.749644	0	4.8319	0	0	0	0	0	0	0	0	0	0
1.78	9.02045	291.458	-22.0431	-0.181429	0.006	-0.415881	0	-6.97582	0	22.7709	459.246	49.8495	-0.183052	0.006	-0.750668	0	4.49773	0	0	0	0	0	0	0	0	0	0
1.79	9.66962	277.392	-20.3876	-0.179619	0.006	-0.416155	0	-6.68764	0	21.721	460.907	50.6096	-0.18206	0.006	-0.751273	0	4.25515	0	0	0	0	0	0	0	0	0	0
1.8	10.9631	266.279	-18.9073	-0.177978	0.006	-0.416533	0	-6.47382	0	22.1048	464.048	51.2097	-0.181502	0.006	-0.751605	0	4.07017	0	0	0	0	0	0	0	0	0	0
1.81	12.336	257.176	-17.3852	-0.17631	0.006	-0.417052	0	-6.25701	0	22.9814	468.064	52.1278	-0.180588	0.006	-0.75202	0	3.82264	0	0	0	0	0	0	0	0	0	0
1.82	13.5976	250.576	-15.8732	-0.174379	0.006	-0.417872	0	-6.0814	0	23.1136	473.656	53.4501	-0.179028	0.006	-0.752615	0	3.5239	0	0	0	0	0	0	0	0	0	0
1.83	14.6306	246.871	-14.5439	-0.17245	0.006	-0.418994	0	-5.8844	0	21.5795	481.207	54.7767	-0.176236	0.006	-0.753442	0	3.30915	0	0	0	0	0	0	0	0	0	0
1.84	15.039	243.946	-13.9644	-0.170272	0.006	-0.420114	0	-5.68357	0	17.1784	486.638	55.8774	-0.172086	0.006	-0.754454	0	3.14561	0	0	0	0	0	0	0	0	0	0
1.85	14.2455	240.549	-14.1811	-0.16812	0.006	-0.421013	0	-5.48823	0	11.1289	487.783	56.8412	-0.167284	0.006	-0.755376	0	3.05829	0	0	0	0	0	0	0	0	0	0
1.86	13.2017	239.447	-15.4655	-0.166563	0.006	-0.421695	0	-5.34315	0	6.26353	487.18	58.0949	-0.162898	0.006	-0.756301	0	3.01553	0	0	0	0	0	0	0	0	0	0
1.87	12.0443	245.368	-17.7509	-0.165633	0.006	-0.422173	0	-5.33475	0	4.12537	489.419	60.1217	-0.159422	0.006	-0.757296	0	3.00161	0	0	0	0	0	0	0	0	0	0
1.88	11.7225	260.503	-21.2205	-0.165394	0.006	-0.422635	0	-5.50174	0	5.67282	495.303	63.3767	-0.156516	0.006	-0.758263	0	2.95804	0	0	0	0	0	0	0	0	0	0
1.89	12.7942	285.219	-26.108	-0.165754	0.006	-0.42249	0	-5.75105	0	8.19238	501.797	67.6766	-0.153783	0.006	-0.75906	0	2.90552	0	0	0	0	0	0	0	0	0	0
1.9	13.9428	316.861	-31.7425	-0.166259	0.006	-0.422362	0	-5.99924	0	7.56309	508.147	71.6796	-0.150847	0.006	-0.759567	0	2.94535	0	0	0	0	0	0	0	0	0	0
1.91	14.2259	350.856	-37.3996	-0.166708	0.006	-0.422331	0	-6.24033	0	4.59388	516.262	73.7274	-0.147772	0.006	-0.759663	0	3.20741	0	0	0	0	0	0	0	0	0	0
1.92	15.5046	384.488	-42.593	-0.167363	0.006	-0.422323	0	-6.48713	0	1.29306	527.465	74.4738	-0.145014	0.006	-0.75946	0	3.59563	0	0	0	0	0	0	0	0	0	0
1.93	17.531	415.802	-47.8379	-0.167581	0.006	-0.422158	0	-6.65863	0	-2.51722	542.224	75.1921	-0.142799	0.006	-0.759218	0	4.0292	0	0	0	0	0	0	0	0	0	0
1.94	17.0875	443.9	-53.2687	-0.166863	0.006	-0.422124	0	-6.73563	0	-7.64221	559.269	76.4319	-0.1405	0.006	-0.75886	0	4.40386	0	0	0	0	0	0	0	0	0	0
1.95	12.484	469.349	-57.25	-0.165736	0.006	-0.42218	0	-6.85282	0	-14.1793	577.15	77.2542	-0.138003	0.006	-0.758498	0	4.73509	0	0	0	0	0	0	0	0	0	0
1.96	6.19528	493.674	-58.8852	-0.164808	0.006	-0.422319	0	-7.14398	0	-20.8414	596.682	77.3424	-0.135432	0.006	-0.758049	0	5.07093	0	0	0	0	0	0	0	0	0	0
1.97	1.75147	520.653	-59.8253	-0.164306	0.006	-0.422463	0	-7.50441	0	-27.4265	617.8	77.606	-0.132779	0.006	-0.757525	0	5.37697	0	0	0	0	0	0	0	0	0	0
1.98	-1.22936	551.957	-62.2496	-0.163753	0.006	-0.422526	0	-7.73815	0	-33.8626	638.912	79.3009	-0.130205	0.006	-0.757031	0	5.53729	0	0	0	0	0	0	0	0	0	0
1.99	-4.45141	584.584	-65.7098	-0.162568	0.006	-0.422233	0	-7.72643	0	-39.879	657.89	82.6195	-0.12766	0.006	-0.756677	0	5.49189	0	0	0	0	0	0	0	0	0	0
2	-8.94092	614.056	-69.5048	-0.160628	0.006	-0.421844	0	-7.51721	0	-45.1383	673.58	86.1925	-0.125199	0.006	-0.756414	0	5.3708	0	0	0	0	0	0	0	0	0	0
2.01	-15.108	640.068	-72.3941	-0.158042	0.006	-0.421468	0	-7.31522	0	-49.4713	686.544	88.8688	-0.122898	0.006	-0.756261	0	5.37993	0	0	0	0	0	0	0	0	0	0
2.02	-22.4687	662.542	-73.5939	-0.155109	0.006	-0.420964	0	-7.21331	0	-53.7588	697.019	89.8656	-0.120719	0.006	-0.756258	0	5.51023	0	0	0	0	0	0	0	0	0	0
2.03	-30.7495	678.885	-74.7851	-0.152078	0.006	-0.420276	0	-7.01701	0	-58.3119	703.955	88.5924	-0.118563	0.006	-0.756291	0	5.6961	0	0	0	0	0	0	0	0	0	0
2.04	-38.9332	688.066	-76.414	-0.149122	0.006	-0.419482	0	-6.65866	0	-62.9786	706.038	85.8369	-0.116539	0.006	-0.756185	0	5.77072	0	0	0	0	0	0	0	0	0	0
2.05	-47.1023	690.825	-78.0382	-0.146328	0.006	-0.418703	0	-6.14661	0	-67.5485	703.041	82.1763	-0.114846	0.006	-0.756029	0	5.71557	0	0	0	0	0	0	0	0	0	0
2.06	-54.7975	686.868	-79.5585	-0.143793	0.006	-0.417884	0	-5.44726	0	-71.5818	693.869	77.6595	-0.113083	0.006	-0.755973	0	5.49319	0	0	0	0	0	0	0	0	0	0
2.07	-60.9521	673.432	-80.5852	-0.14142	0.006	-0.417044	0	-4.54655	0	-74.3319	676.216	72.4598	-0.111043	0.006	-0.755866	0	5.01931	0	0	0	0	0	0	0	0	0	0
2.08	-64.1712	646.853	-80.0469	-0.139024	0.006	-0.416185	0	-3.43405	0	-75.7207	647.931	65.9781	-0.10875	0.006	-0.755773	0	4.40654	0	0	0	0	0	0	0	0	0	0
2.09	-62.4982	602.935	-77.1432	-0.136588	0.006	-0.415406	0	-2.17666	0	-75.0479	605.531	57.7516	-0.106287	0.006	-0.755861	0	3.78585	0	0	0	0	0	0	0	0	0	0
